HIERARCHY
ROOT Hips
{
	OFFSET 0.000000 0.000000 0.000000
	CHANNELS 6 Xposition Yposition Zposition Zrotation Yrotation Xrotation 
	JOINT LowerBack
	{
		OFFSET 0.000000 0.000000 0.000000
		CHANNELS 3 Zrotation Yrotation Xrotation
		JOINT Spine
		{
			OFFSET 0.028270 2.035590 -0.193380
			CHANNELS 3 Zrotation Yrotation Xrotation
			JOINT Spine1
			{
				OFFSET 0.056720 2.048850 -0.042750
				CHANNELS 3 Zrotation Yrotation Xrotation
				JOINT Neck
				{
					OFFSET 0.000000 0.000000 0.000000
					CHANNELS 3 Zrotation Yrotation Xrotation
					JOINT Neck1
					{
						OFFSET -0.054170 1.746240 0.172020
						CHANNELS 3 Zrotation Yrotation Xrotation
						JOINT Head
						{
							OFFSET 0.104070 1.761360 -0.123970
							CHANNELS 3 Zrotation Yrotation Xrotation
							End Site
							{
								OFFSET 0.000000 0.000000 0.000000
							}
						}
					}
				}
				JOINT LeftShoulder
				{
					OFFSET 0.000000 0.000000 0.000000
					CHANNELS 3 Zrotation Yrotation Xrotation
					JOINT LeftArm
					{
						OFFSET 3.362410 1.200890 -0.311210
						CHANNELS 3 Zrotation Yrotation Xrotation
						JOINT LeftForeArm
						{
							OFFSET 4.983000 -0.000000 -0.000000
							CHANNELS 3 Zrotation Yrotation Xrotation
							JOINT LeftHand
							{
								OFFSET 3.483560 -0.000000 -0.000000
								CHANNELS 3 Zrotation Yrotation Xrotation
								JOINT LeftFingerBase
								{
									OFFSET 0.000000 0.000000 0.000000
									CHANNELS 3 Zrotation Yrotation Xrotation
									JOINT LeftHandIndex1
									{
										OFFSET 0.715260 -0.000000 -0.000000
										CHANNELS 3 Zrotation Yrotation Xrotation
										End Site
										{
											OFFSET 0.000000 0.000000 0.000000
										}
									}
								}
								JOINT LThumb
								{
									OFFSET 0.000000 0.000000 0.000000
									CHANNELS 3 Zrotation Yrotation Xrotation
									End Site
									{
										OFFSET 0.000000 0.000000 0.000000
									}
								}
							}
						}
					}
				}
				JOINT RightShoulder
				{
					OFFSET 0.000000 0.000000 0.000000
					CHANNELS 3 Zrotation Yrotation Xrotation
					JOINT RightArm
					{
						OFFSET -3.136600 1.374050 -0.404650
						CHANNELS 3 Zrotation Yrotation Xrotation
						JOINT RightForeArm
						{
							OFFSET -5.241900 -0.000000 -0.000000
							CHANNELS 3 Zrotation Yrotation Xrotation
							JOINT RightHand
							{
								OFFSET -3.444170 -0.000000 -0.000000
								CHANNELS 3 Zrotation Yrotation Xrotation
								JOINT RightFingerBase
								{
									OFFSET 0.000000 0.000000 0.000000
									CHANNELS 3 Zrotation Yrotation Xrotation
									JOINT RightHandIndex1
									{
										OFFSET -0.622530 -0.000000 -0.000000
										CHANNELS 3 Zrotation Yrotation Xrotation
										End Site
										{
											OFFSET 0.000000 0.000000 0.000000
										}
									}
								}
								JOINT RThumb
								{
									OFFSET 0.000000 0.000000 0.000000
									CHANNELS 3 Zrotation Yrotation Xrotation
									End Site
									{
										OFFSET 0.000000 0.000000 0.000000
									}
								}
							}
						}
					}
				}
			}
		}
	}
}
}
MOTION
Frames: 18
Frame Time: 0.008333
12.480549 16.926071 2.456251 -173.963180 -84.322978 -173.919449 3.820713 -7.191304 -8.571897 0.946244 -7.742560 -4.205559 -5.078203 -7.834233 1.628661 9.860098 -23.243761 -9.838321 -2.802193 -0.196145 -0.450345 0.000000 0.000000 0.000000 -0.715586 -1.025973 0.437005 -61.691669 -13.743440 5.683821 -2.284512 -51.869500 -0.020618 5.348075 -1.124690 -0.064574 -0.078675 0.272604 -0.000000 0.000000 0.000000 0.000000 0.000000 0.000000 0.000000 15.284397 -23.278667 0.058525 57.253813 -11.588309 -4.211817 2.316327 51.892471 0.005249 1.851236 1.257633 0.020727 0.098302 -0.063133 0.000000 0.000000 0.000000 0.000000 0.000000 0.000000 0.000000 
12.279953 16.925181 2.455406 -166.408733 -83.996304 178.341405 4.539739 -7.060374 -8.444950 1.080383 -7.699774 -4.195339 -5.136042 -7.792086 1.580268 9.938347 -23.152953 -9.843718 -2.846620 -0.200236 -0.452208 0.000000 0.000000 0.000000 -0.861485 -0.986808 0.416531 -62.458628 -12.958177 5.405361 -2.295965 -51.599913 -0.020010 5.296153 -1.171863 -0.065927 -0.075998 0.267630 -0.000000 0.000000 0.000000 0.000000 0.000000 0.000000 0.000000 15.488309 -23.145597 0.046411 56.915881 -10.951754 -4.357128 2.305709 52.001669 0.005397 1.651783 1.394887 0.020335 0.099858 -0.065879 0.000000 0.000000 0.000000 0.000000 0.000000 0.000000 0.000000 
12.084666 16.926455 2.452853 -160.202240 -83.710645 171.930642 5.133100 -6.969636 -8.275274 1.188435 -7.679939 -4.172910 -5.201087 -7.772593 1.534632 10.056581 -23.033331 -9.847537 -2.894457 -0.204534 -0.454070 0.000000 0.000000 0.000000 -0.937893 -0.957384 0.397303 -63.248912 -12.182526 5.092836 -2.305146 -51.263647 -0.019516 5.274424 -1.223073 -0.067880 -0.073823 0.262419 -0.000000 0.000000 0.000000 0.000000 0.000000 0.000000 0.000000 15.745471 -23.001426 0.031011 56.677888 -10.267458 -4.541510 2.295851 52.039544 0.005521 1.434780 1.537259 0.019244 0.101264 -0.068609 0.000000 0.000000 0.000000 0.000000 0.000000 0.000000 0.000000 
11.894819 16.930066 2.448150 -155.347726 -83.436133 166.854184 5.584544 -6.900184 -8.068443 1.263330 -7.661430 -4.140047 -5.273774 -7.753543 1.492204 10.209801 -22.884817 -9.848195 -2.944488 -0.208951 -0.455435 0.000000 0.000000 0.000000 -0.948805 -0.925656 0.378149 -64.049311 -11.415874 4.753535 -2.311832 -50.862268 -0.019123 5.283662 -1.275600 -0.070238 -0.072082 0.256793 -0.000000 0.000000 0.000000 0.000000 0.000000 0.000000 0.000000 16.045641 -22.834698 0.014159 56.551158 -9.550741 -4.763041 2.287026 52.013283 0.005612 1.200199 1.682376 0.017353 0.102591 -0.071395 -0.000000 0.000000 0.000000 0.000000 0.000000 0.000000 0.000000 
11.710308 16.936213 2.440918 -151.703372 -83.168070 162.973731 5.898275 -6.838795 -7.831789 1.304224 -7.632088 -4.098414 -5.354591 -7.722621 1.453370 10.392752 -22.710857 -9.844198 -2.996027 -0.213454 -0.455827 0.000000 0.000000 0.000000 -0.901526 -0.886046 0.358890 -64.845272 -10.658346 4.399104 -2.316174 -50.397926 -0.018810 5.322153 -1.326755 -0.072897 -0.070687 0.250639 -0.000000 0.000000 0.000000 0.000000 0.000000 0.000000 0.000000 16.381041 -22.641918 -0.003901 56.541007 -8.817455 -5.016922 2.278883 51.933207 0.005667 0.948169 1.827810 0.014564 0.103871 -0.074266 0.000000 0.000000 0.000000 0.000000 0.000000 0.000000 0.000000 
11.530639 16.945103 2.430768 -149.046291 -82.920669 160.074958 6.083916 -6.779373 -7.576888 1.313217 -7.588280 -4.050167 -5.443156 -7.676315 1.419430 10.599663 -22.518956 -9.834935 -3.048456 -0.218013 -0.454988 0.000000 0.000000 0.000000 -0.808156 -0.835228 0.340066 -65.622206 -9.913066 4.045786 -2.319010 -49.873181 -0.018548 5.386350 -1.373190 -0.075758 -0.069588 0.243906 -0.000000 0.000000 0.000000 0.000000 0.000000 0.000000 0.000000 16.744756 -22.427899 -0.024263 56.646738 -8.081860 -5.293612 2.270658 51.811514 0.005678 0.677811 1.971761 0.010775 0.105120 -0.077221 0.000000 0.000000 0.000000 0.000000 0.000000 0.000000 0.000000 
11.355388 16.956870 2.417710 -147.087172 -82.714738 157.872842 6.158617 -6.720260 -7.315976 1.295115 -7.531686 -3.997858 -5.537894 -7.616554 1.391245 10.822587 -22.316118 -9.819951 -3.101048 -0.222598 -0.452724 0.000000 0.000000 0.000000 -0.685462 -0.770516 0.322808 -66.366171 -9.186332 3.711934 -2.321573 -49.290187 -0.018309 5.470683 -1.411482 -0.078419 -0.068754 0.236616 0.000000 0.000000 0.000000 0.000000 0.000000 0.000000 0.000000 17.127076 -22.199070 -0.048373 56.863762 -7.357065 -5.583855 2.261467 51.660230 0.005637 0.389702 2.113636 0.005987 0.106319 -0.080255 0.000000 0.000000 0.000000 0.000000 0.000000 0.000000 0.000000 
11.183728 16.971549 2.402008 -145.537897 -82.569043 156.089118 6.142196 -6.661392 -7.062165 1.255512 -7.465758 -3.944418 -5.637376 -7.547058 1.369337 11.052940 -22.106977 -9.798450 -3.153346 -0.227207 -0.448748 0.000000 0.000000 0.000000 -0.550927 -0.691639 0.308320 -67.066861 -8.482581 3.413528 -2.325174 -48.653352 -0.018056 5.567687 -1.438571 -0.080880 -0.068150 0.228829 0.000000 0.000000 0.000000 0.000000 0.000000 0.000000 0.000000 17.517567 -21.960502 -0.077281 57.184936 -6.658237 -5.880737 2.250584 51.492592 0.005550 0.087506 2.253842 0.000199 0.107429 -0.083360 0.000000 0.000000 0.000000 0.000000 0.000000 0.000000 0.000000 
11.015114 16.989122 2.383980 -144.168677 -82.498403 154.499733 6.053014 -6.603242 -6.827989 1.199748 -7.394070 -3.892669 -5.739562 -7.471631 1.354058 11.283456 -21.897892 -9.770817 -3.204789 -0.231817 -0.443098 0.000000 0.000000 0.000000 -0.420741 -0.597700 0.297162 -67.715513 -7.805546 3.164728 -2.330775 -47.969688 -0.017761 5.670002 -1.451677 -0.082638 -0.067738 0.220626 0.000000 0.000000 0.000000 0.000000 0.000000 0.000000 0.000000 17.907554 -21.718980 -0.111815 57.599263 -5.994141 -6.173349 2.237541 51.319883 0.005410 -0.225399 2.391998 -0.006587 0.108428 -0.086516 0.000000 0.000000 0.000000 0.000000 0.000000 0.000000 0.000000 
10.848819 17.009437 2.364117 -142.783634 -82.510527 152.919030 5.909691 -6.545943 -6.625208 1.133066 -7.319646 -3.844859 -5.842420 -7.393477 1.347457 11.508657 -21.697282 -9.740035 -3.254383 -0.236333 -0.436544 0.000000 0.000000 0.000000 -0.310059 -0.479265 0.289504 -68.306619 -7.165663 2.981578 -2.339453 -47.243912 -0.017409 5.770730 -1.448196 -0.083593 -0.067517 0.212106 0.000000 0.000000 0.000000 0.000000 0.000000 0.000000 0.000000 18.290010 -21.483232 -0.152698 58.091918 -5.363736 -6.445497 2.222477 51.148289 0.005223 -0.545502 2.528631 -0.014373 0.109328 -0.089698 0.000000 0.000000 0.000000 0.000000 0.000000 0.000000 0.000000 
10.684298 17.032241 2.343017 -141.176814 -82.605760 151.147154 5.734972 -6.489008 -6.460744 1.061057 -7.244776 -3.803098 -5.944595 -7.315012 1.348253 11.722584 -21.504610 -9.705929 -3.301848 -0.240758 -0.429001 0.000000 0.000000 0.000000 -0.229169 -0.338588 0.285622 -68.838777 -6.558643 2.866930 -2.351211 -46.490304 -0.016984 5.862826 -1.426422 -0.083341 -0.067433 0.203379 0.000000 0.000000 0.000000 0.000000 0.000000 0.000000 0.000000 18.656354 -21.252481 -0.199021 58.649577 -4.774033 -6.688898 2.205617 50.986079 0.004994 -0.865133 2.662967 -0.022859 0.110099 -0.092879 0.000000 0.000000 0.000000 0.000000 0.000000 0.000000 0.000000 
10.521069 17.057190 2.321374 -139.180797 -82.777057 149.022453 5.547433 -6.431758 -6.338786 0.988188 -7.170818 -3.768572 -6.044699 -7.237667 1.356385 11.921718 -21.321045 -9.670543 -3.346492 -0.245022 -0.421022 0.000000 0.000000 0.000000 -0.185524 -0.170895 0.285459 -69.312974 -5.985706 2.823560 -2.365970 -45.721232 -0.016487 5.941701 -1.386135 -0.081987 -0.067471 0.194565 0.000000 0.000000 0.000000 0.000000 0.000000 0.000000 0.000000 19.000457 -21.027308 -0.249751 59.256484 -4.221366 -6.889892 2.187628 50.836139 0.004739 -1.177195 2.794232 -0.031844 0.110737 -0.096032 0.000000 0.000000 0.000000 0.000000 0.000000 0.000000 0.000000 
10.359027 17.083862 2.299795 -136.686642 -83.009444 146.432958 5.360199 -6.372643 -6.256464 0.917100 -7.097145 -3.742138 -6.141967 -7.160836 1.366953 12.101730 -21.140017 -9.630962 -3.388499 -0.249187 -0.411795 0.000000 0.000000 0.000000 -0.180563 0.005041 0.288885 -69.731660 -5.416534 2.831748 -2.381870 -44.968832 -0.015919 6.003276 -1.328676 -0.079328 -0.067516 0.185721 0.000000 0.000000 0.000000 0.000000 0.000000 0.000000 0.000000 19.314161 -20.800247 -0.301235 59.901599 -3.708008 -7.044026 2.169588 50.699372 0.004474 -1.466663 2.922036 -0.040928 0.111168 -0.099145 0.000000 0.000000 0.000000 0.000000 0.000000 0.000000 0.000000 
10.197830 17.111750 2.278795 -133.535667 -83.283430 143.232477 5.189374 -6.310296 -6.218663 0.851846 -7.024132 -3.722598 -6.234240 -7.084819 1.390387 12.267104 -20.971063 -9.601459 -3.425027 -0.252834 -0.405351 0.000000 0.000000 0.000000 -0.217089 0.258982 0.295621 -70.102293 -4.926513 2.935789 -2.402051 -44.197827 -0.015306 6.049490 -1.253304 -0.075461 -0.067921 0.177089 0.000000 0.000000 0.000000 0.000000 0.000000 0.000000 0.000000 19.601539 -20.577492 -0.357263 60.560437 -3.208435 -7.113569 2.151502 50.575352 0.004180 -1.748473 3.041842 -0.050312 0.111556 -0.102158 0.000000 0.000000 0.000000 0.000000 0.000000 0.000000 0.000000 
10.037689 17.140364 2.258880 -129.834378 -83.570854 139.512848 5.031130 -6.240016 -6.210706 0.790135 -6.945528 -3.710374 -6.322312 -7.003363 1.413168 12.412153 -20.794466 -9.569539 -3.457862 -0.256262 -0.398237 0.000000 0.000000 0.000000 -0.286361 0.526977 0.305383 -70.427401 -4.426094 3.074334 -2.421568 -43.477376 -0.014646 6.077967 -1.165608 -0.070691 -0.068364 0.168579 0.000000 0.000000 0.000000 0.000000 0.000000 0.000000 0.000000 19.850770 -20.337620 -0.409164 61.231737 -2.734941 -7.111332 2.135146 50.461687 0.003903 -1.992921 3.154608 -0.059196 0.111705 -0.105109 0.000000 0.000000 0.000000 0.000000 0.000000 0.000000 0.000000 
9.878594 17.169223 2.240246 -125.733011 -83.842935 135.425006 4.885847 -6.155872 -6.228450 0.731367 -6.855098 -3.704580 -6.405744 -6.910192 1.436209 12.538975 -20.606695 -9.538417 -3.486076 -0.259338 -0.391402 0.000000 0.000000 0.000000 -0.382845 0.828003 0.317560 -70.712420 -3.924118 3.248718 -2.440284 -42.812402 -0.013956 6.091209 -1.067637 -0.065215 -0.068944 0.160244 0.000000 0.000000 0.000000 0.000000 0.000000 0.000000 0.000000 20.061670 -20.072580 -0.455632 61.902111 -2.275577 -7.019573 2.121137 50.355880 0.003645 -2.199967 3.257539 -0.067178 0.111656 -0.107994 -0.000000 0.000000 0.000000 0.000000 0.000000 0.000000 0.000000 
9.720862 17.197877 2.222970 -121.599189 -84.071850 131.328077 4.748779 -6.049546 -6.260524 0.673475 -6.743438 -3.702673 -6.484565 -6.795858 1.460960 12.651835 -20.404700 -9.512062 -3.508914 -0.261920 -0.386069 0.000000 0.000000 0.000000 -0.497658 1.188244 0.331129 -70.961858 -3.437207 3.464263 -2.458437 -42.199288 -0.013248 6.093490 -0.966052 -0.059335 -0.069784 0.152123 0.000000 0.000000 0.000000 0.000000 0.000000 0.000000 0.000000 20.238359 -19.773292 -0.495907 62.558833 -1.816197 -6.820322 2.109973 50.256325 0.003413 -2.368888 3.349419 -0.074160 0.111432 -0.110827 0.000000 0.000000 0.000000 0.000000 0.000000 0.000000 0.000000 
9.564543 17.225990 2.206988 -117.845180 -84.237899 127.632381 4.621703 -5.912273 -6.303292 0.615680 -6.601892 -3.705476 -6.560055 -6.651814 1.481078 12.749476 -20.178208 -9.484486 -3.527147 -0.264140 -0.380548 0.000000 0.000000 0.000000 -0.623835 1.581368 0.345252 -71.175430 -2.919355 3.691494 -2.473402 -41.674946 -0.012524 6.085867 -0.862066 -0.053253 -0.070727 0.144103 0.000000 0.000000 0.000000 0.000000 0.000000 0.000000 0.000000 20.376316 -19.425535 -0.525547 63.198398 -1.359129 -6.515013 2.102479 50.161301 0.003225 -2.490223 3.429405 -0.079740 0.110994 -0.113653 0.000000 0.000000 0.000000 0.000000 0.000000 0.000000 0.000000 
